# xmcd
#
# Track frame offsets: 
#        150
#        1166
#        14055
#        33772
#        44407
#        95516
#        160411
#        192373
#        209545
#        228625
#        246105
#        284673
#        287091
#        294662
#        312619
#        322517
#        328653
#
# Disc length: 4462 seconds
#
# Revision: 0
# Processed by: cddbd v1.5.2PL0 Copyright (c) Steve Scherf et al.
# Submitted via: ExactAudioCopy v0.95b4
#
DISCID=fc116c11
DTITLE=The Beatles  - AB  Road - Complete Purple Chick Set v1.1 Jan.27
DTITLE=Various Artist - D1  FLAC
DYEAR=1900
DGENRE=
TTITLE0=Roll announcement
TTITLE1=Dialogue
TTITLE2=Instrumental 27.01
TTITLE3=Strawberry Fields Forever 27.02
TTITLE4=Dialogue
TTITLE5=Old Brown Shoe 27.03
TTITLE6=Instrumental 27.04
TTITLE7=The Long And Winding Road 26.92P
TTITLE8=Let It Be 26.75P
TTITLE9=Don't Let Me Down 22.60P
TTITLE10=Dig It 26.56P
TTITLE11=Rip It Up 26.57P
TTITLE12=Shake, Rattle And Roll 26.58P
TTITLE13=Kansas City-Miss Ann-Lawdy Miss Clawdy 26.59P
TTITLE14=Blue Suede Shoes 26.60P
TTITLE15=You Really Got A Hold On Me 26.61P
TTITLE16=Baby Let's Play House 27.05
EXTD=
EXTT0=
EXTT1=
EXTT2=
EXTT3=
EXTT4=
EXTT5=
EXTT6=
EXTT7=
EXTT8=
EXTT9=
EXTT10=
EXTT11=
EXTT12=
EXTT13=
EXTT14=
EXTT15=
EXTT16=
PLAYORDER=
